# xmcd CD database file
#
# Track frame offsets:
#	150
#	29007
#	48130
#	63740
#	79132
#	93520
#	112737
#	140307
#	153507
#	173377
#
# Disc length: 2529 seconds
#
# Revision: 2
# Processed by: cddbd v1.4PL0 Copyright (c) Steve Scherf et al.
# Submitted via: CDex 1.50Beta7
#
DISCID=7709df0a
DTITLE=Willie Cobbs - Jukin'
DYEAR=2000
DGENRE=Blues
TTITLE0=Jukin'
TTITLE1=Black Night
TTITLE2=Feeling Good
TTITLE3=Mean Old World
TTITLE4=Poison Ivy
TTITLE5=Reconsider, Baby
TTITLE6=Five Long Years
TTITLE7=You're So Fine
TTITLE8=Please Send Me Someone to Love
TTITLE9=I Don't Know
EXTD=YEAR: 2000
EXTT0=
EXTT1=
EXTT2=
EXTT3=
EXTT4=
EXTT5=
EXTT6=
EXTT7=
EXTT8=
EXTT9=
PLAYORDER=
